<svg id="Layer_7" data-name="Layer 7" xmlns="http://www.w3.org/2000/svg" viewBox="0 0 446.27 500"><defs><style>.cls-1{fill:none;stroke:#fff;stroke-linecap:round;stroke-linejoin:round;stroke-width:19.84px;}</style></defs><title>Meditation icon</title><circle class="cls-1" cx="221.46" cy="73.7" r="63.51"/><path class="cls-1" d="M264,123.69s34.75,0,56.7,28.16c17.83,22.88,29.29,85.77,46.22,115.51,13.67,24,46.58,71.74,65.23,99.47a20.89,20.89,0,0,1-2.56,26.41h0a20.89,20.89,0,0,1-31.29-2S338.52,318,323,290c-11.08-20-34.69-85.79-34.69-85.79V343.84s-37.28,4.65-66.86,4.65A492.42,492.42,0,0,1,158,343.84V204.18S134.34,270,123.26,290C107.75,318,48,391.25,48,391.25a20.89,20.89,0,0,1-31.29,2h0a20.89,20.89,0,0,1-2.56-26.41c18.65-27.73,51.56-75.46,65.23-99.47,16.93-29.74,28.39-92.63,46.22-115.51,21.95-28.16,56.7-28.16,56.7-28.16"/><path class="cls-1" d="M158,343.84,61.25,401.3a47.29,47.29,0,0,0-17.16,65.88h0a47.28,47.28,0,0,0,51.45,21.3L231.09,453.4a26.06,26.06,0,0,0,18-35.23h0a26.06,26.06,0,0,0-30-15.48l-110.49,28"/><path class="cls-1" d="M231.94,403l105.64,27.68"/><path class="cls-1" d="M288.24,343.84l96.7,57.46a47.28,47.28,0,0,1,17.16,65.88h0a47.28,47.28,0,0,1-51.45,21.3l-127.55-33"/></svg>