<svg xmlns="http://www.w3.org/2000/svg" viewBox="0 0 446 500">
    <circle fill="none" stroke="#fff" stroke-width="19.8" cx="221.5" cy="73.7" r="63.5"/>
    <path fill="none" stroke="#fff" stroke-width="19.8" d="M209.64,452.13,325.9,481.8a48.06,48.06,0,0,0,52.45-22h0a48.08,48.08,0,0,0-14.91-65L284.11,343V224.53l97.16,149a21.48,21.48,0,0,0,32.58,4h0a21.48,21.48,0,0,0,3.6-27.16L305.24,171.45a71.82,71.82,0,0,0-60.89-33.69H188a71.88,71.88,0,0,0-60.9,33.69L14.85,350.37a21.48,21.48,0,0,0,3.6,27.16h0a21.48,21.48,0,0,0,32.58-4l97.16-149V343L68.87,394.83A48.07,48.07,0,0,0,54,459.8h0a48.08,48.08,0,0,0,52.46,22l84.11-20.22A48.06,48.06,0,0,0,225,399.9h0L108.17,429.54"/>
    <line fill="none" stroke="#fff" stroke-width="19.8" x1="324.13" y1="429.54" x2="224.96" y2="399.9"/>
</svg>