<svg id="Layer_7" data-name="Layer 7" xmlns="http://www.w3.org/2000/svg" viewBox="0 0 500 500"><defs><style>.cls-1{fill:none;stroke:#fff;stroke-linecap:round;stroke-linejoin:round;stroke-width:19.84px;}</style></defs><title>Homework icon</title><path class="cls-1" d="M28.8,296.5c7,20.63,37.65,8.25,41.86,18.38,9.64,23.22-.93,91,24.58,107.33,26.67,17.1,57.25-4.66,72.67,6.44,14.25,10.25,3.61,57.12,39.75,60.24,51,4.41,167.91-30.39,181.67-49.2,10.88-14.87-8.95-35,7.67-88.6,23.89-77.15,121.66-142.33,58-252.47C405.55,13.14,296.28,10.24,258,10.24c-48.85,0-153,21.66-179.57,107.91-17.92,58.2,0,75.13-14.27,106.92C49,259.05,21.18,273.94,28.8,296.5Z"/><path class="cls-1" d="M216.6,81.17a40,40,0,0,1,64.66-2.31"/><path class="cls-1" d="M385.27,218.06a55,55,0,0,0-28.65-101.87"/><path class="cls-1" d="M393.43,213a33.34,33.34,0,0,1-61.94,23.58"/><path class="cls-1" d="M363,112.25a46.38,46.38,0,0,0-84.83-25.93"/><path class="cls-1" d="M167.45,120.24a27.48,27.48,0,1,0-.08,54.63"/><path class="cls-1" d="M160.79,174.82a33.33,33.33,0,0,0,54.88,36.58"/><path class="cls-1" d="M223.87,194.6A31.25,31.25,0,0,0,273.92,232"/><path class="cls-1" d="M266,243.52a36.77,36.77,0,0,0,73.12,5.59"/><path class="cls-1" d="M156.27,116.23A38.65,38.65,0,0,1,227,94.62"/></svg>