<svg id="Layer_7" data-name="Layer 7" xmlns="http://www.w3.org/2000/svg" viewBox="0 0 500 500"><defs><style>.cls-1{fill:none;stroke:#fff;stroke-linecap:round;stroke-linejoin:round;stroke-width:19.84px;}</style></defs><path class="cls-1" d="M28.8,296.5c7,20.63,37.65,8.25,41.86,18.38,9.64,23.22-.93,91,24.58,107.33,26.67,17.1,57.25-4.66,72.67,6.44,14.25,10.25,3.61,57.12,39.75,60.24,51,4.41,167.91-30.39,181.67-49.2,10.88-14.87-8.95-35,7.67-88.6,23.89-77.15,121.66-142.33,58-252.47C405.55,13.14,296.28,10.24,258,10.24c-48.85,0-153,21.66-179.57,107.91-17.92,58.2,0,75.13-14.27,106.92C49,259.05,21.18,273.94,28.8,296.5Z"/><path class="cls-1" d="M387,192.36c9-11.67,18.75-29.32,18.75-43.29,0-47.68-59.09-86.33-132-86.33s-132,38.65-132,86.33c0,44.88,53.68,77.15,120.6,81.33,0,0,31,51.52,90.9,30.24C406.6,241.68,387,192.36,387,192.36Z"/></svg>