<svg xmlns="http://www.w3.org/2000/svg" viewBox="0 0 500 500">
    <path fill="none" stroke="#fff" stroke-width="19.8" d="M29 297c7 20 37 8 42 18 9 23-1 91 24 107 27 17 57-4 73 7 14 10 4 57 40 60 51 4 168-31 181-49 11-15-9-35 8-89 24-77 122-142 58-252-49-86-159-89-197-89-49 0-153 22-180 108-17 58 0 75-14 107-15 34-43 49-35 72z"/>
    <path fill="none" stroke="#fff" stroke-width="19.8" d="M387 192c9-11 19-29 19-43 0-48-59-86-132-86s-132 38-132 86c0 45 53 77 120 81 0 0 31 52 91 31 54-19 34-69 34-69z"/>
</svg>